<svg xmlns="http://www.w3.org/2000/svg" viewBox="0 0 512 512">
  <defs>
    <linearGradient id="bg" x1="0%" y1="0%" x2="100%" y2="100%">
      <stop offset="0%" style="stop-color:#FF6B35;stop-opacity:1" />
      <stop offset="100%" style="stop-color:#E55A2B;stop-opacity:1" />
    </linearGradient>
  </defs>
  <!-- Background circle -->
  <circle cx="256" cy="256" r="240" fill="url(#bg)"/>
  <!-- Onigiri body (triangle with rounded corners) -->
  <path d="M256 100 C256 100, 380 240, 400 310 C410 345, 395 380, 360 390 L152 390 C117 380, 102 345, 112 310 C132 240, 256 100, 256 100Z" fill="white" stroke="none"/>
  <!-- Nori (seaweed wrap) -->
  <path d="M200 310 L200 390 L312 390 L312 310 C312 290, 290 280, 256 280 C222 280, 200 290, 200 310Z" fill="#2D2D2D" rx="8"/>
  <!-- Face - eyes -->
  <circle cx="220" cy="240" r="10" fill="#2D2D2D"/>
  <circle cx="292" cy="240" r="10" fill="#2D2D2D"/>
  <!-- Face - mouth -->
  <path d="M240 268 Q256 282 272 268" fill="none" stroke="#2D2D2D" stroke-width="5" stroke-linecap="round"/>
  <!-- Blush -->
  <ellipse cx="200" cy="258" rx="15" ry="10" fill="#FFB5B5" opacity="0.6"/>
  <ellipse cx="312" cy="258" rx="15" ry="10" fill="#FFB5B5" opacity="0.6"/>
</svg>
